<svg width="74" height="80" viewBox="0 0 74 80" fill="none" xmlns="http://www.w3.org/2000/svg">
<path opacity="0.564706" fill-rule="evenodd" clip-rule="evenodd" d="M73 74.3078C73 75.7726 71.4602 77.1775 68.7194 78.2133C65.9786 79.249 62.2612 79.8309 58.3851 79.8309C54.5089 79.8309 50.7916 79.249 48.0507 78.2133C45.3099 77.1775 43.7701 75.7726 43.7701 74.3078C43.7701 72.843 45.3099 71.4382 48.0507 70.4024C50.7916 69.3666 54.5089 68.7847 58.3851 68.7847C62.2612 68.7847 65.9786 69.3666 68.7194 70.4024C71.4602 71.4382 73 72.843 73 74.3078Z" fill="url(#paint0_radial_5_57)"/>
<path fill-rule="evenodd" clip-rule="evenodd" d="M14.7106 40.8316H24.4538L18.7703 35.554L17.5524 37.1779L16.3345 35.96L14.7106 40.8316Z" fill="url(#paint1_linear_5_57)"/>
<path opacity="0.227848" fill-rule="evenodd" clip-rule="evenodd" d="M25.894 53.9417C28.7215 52.6075 30.0377 49.3434 30.0377 49.3434C27.8351 40.0587 20.9065 33.6289 20.9065 33.6289C20.9065 33.6289 26.5664 48.1946 25.894 53.9417Z" fill="url(#paint2_linear_5_57)"/>
<g opacity="0.348571" filter="url(#filter0_f_5_57)">
<path d="M56.0469 58.9814H11.2265C6.68314 58.9814 3 62.6646 3 67.2079C3 71.7513 6.68314 75.4345 11.2265 75.4345H56.0469C60.5903 75.4345 64.2734 71.7513 64.2734 67.2079C64.2734 62.6646 60.5903 58.9814 56.0469 58.9814Z" fill="black"/>
</g>
<path fill-rule="evenodd" clip-rule="evenodd" d="M22.524 72.8622H46.882C53.7835 72.8622 60.6162 70.3316 63.1207 63.119C65.4991 56.2698 63.5267 43.2266 48.0999 32.6715H19.2763C3.84957 42.4147 1.92171 55.7394 5.47343 63.525C9.09178 71.4566 15.2166 72.8622 22.524 72.8622Z" fill="url(#paint3_radial_5_57)" stroke="#888A85" stroke-linecap="round" stroke-linejoin="round"/>
<path opacity="0.291209" fill-rule="evenodd" clip-rule="evenodd" d="M57.3311 69.3399C60.1587 68.0057 61.4748 64.7416 61.4748 64.7416C59.2722 55.4569 52.3436 49.0271 52.3436 49.0271C52.3436 49.0271 58.0036 63.5929 57.3311 69.3399Z" fill="url(#paint4_linear_5_57)"/>
<path opacity="0.549451" fill-rule="evenodd" clip-rule="evenodd" d="M11.755 70.3383C8.88988 69.0868 7.60754 66.0708 7.60754 66.0708C9.53954 56.726 16.1503 49.8892 16.1503 49.8892C16.1503 49.8892 10.9159 64.6132 11.755 70.3383Z" fill="url(#paint5_linear_5_57)"/>
<path opacity="0.642857" fill-rule="evenodd" clip-rule="evenodd" d="M21.965 71.0875L46.8933 71.035C53.1642 71.035 59.3727 68.7357 61.6484 62.182C63.8095 55.9585 61.4234 44.1069 47.406 34.5161L20.0278 33.9386C6.01042 42.7917 3.29733 54.8991 6.57707 62.5508C9.85681 70.2026 14.6427 71.035 21.965 71.0875Z" stroke="white" stroke-linecap="round" stroke-linejoin="round"/>
<g opacity="0.464706" filter="url(#filter1_f_5_57)">
<path fill-rule="evenodd" clip-rule="evenodd" d="M53.9024 35.3709C53.9031 36.6032 53.3892 37.8236 52.3899 38.9622C51.3905 40.1009 49.9254 41.1355 48.0782 42.0071C46.2309 42.8786 44.0377 43.57 41.6239 44.0416C39.21 44.5133 36.6228 44.7561 34.01 44.7561C31.3972 44.7561 28.81 44.5133 26.3961 44.0416C23.9823 43.57 21.7891 42.8786 19.9418 42.0071C18.0946 41.1355 16.6294 40.1009 15.6301 38.9622C14.6308 37.8236 14.1168 36.6032 14.1176 35.3709C14.1168 34.1385 14.6308 32.9182 15.6301 31.7795C16.6294 30.6409 18.0946 29.6062 19.9418 28.7347C21.7891 27.8631 23.9823 27.1718 26.3961 26.7001C28.81 26.2284 31.3972 25.9856 34.01 25.9856C36.6228 25.9856 39.21 26.2284 41.6239 26.7001C44.0377 27.1718 46.2309 27.8631 48.0782 28.7347C49.9254 29.6062 51.3905 30.6409 52.3899 31.7795C53.3892 32.9182 53.9031 34.1385 53.9024 35.3709Z" fill="url(#paint6_radial_5_57)"/>
</g>
<path fill-rule="evenodd" clip-rule="evenodd" d="M54.1893 20.8984C54.1901 23.5112 53.6762 26.0986 52.6769 28.5128C51.6775 30.9269 50.2124 33.1205 48.3651 34.9684C46.5179 36.8162 44.3247 38.282 41.9108 39.282C39.497 40.2821 36.9098 40.7968 34.297 40.7968C31.6842 40.7968 29.0969 40.2821 26.6831 39.282C24.2692 38.282 22.0761 36.8162 20.2288 34.9684C18.3815 33.1205 16.9164 30.9269 15.9171 28.5128C14.9178 26.0986 14.4038 23.5112 14.4046 20.8984C14.4038 18.2856 14.9178 15.6982 15.9171 13.2841C16.9164 10.8699 18.3815 8.6763 20.2288 6.82848C22.0761 4.98066 24.2692 3.51486 26.6831 2.5148C29.0969 1.51473 31.6842 1 34.297 1C36.9098 1 39.497 1.51473 41.9108 2.5148C44.3247 3.51486 46.5179 4.98066 48.3651 6.82848C50.2124 8.6763 51.6775 10.8699 52.6769 13.2841C53.6762 15.6982 54.1901 18.2856 54.1893 20.8984Z" fill="url(#paint7_radial_5_57)" stroke="#888A85" stroke-linecap="round" stroke-linejoin="round"/>
<path opacity="0.196203" fill-rule="evenodd" clip-rule="evenodd" d="M52.3578 20.8985C52.3585 23.2707 51.8919 25.6199 50.9846 27.8117C50.0773 30.0036 48.747 31.9953 47.0699 33.6729C45.3927 35.3506 43.4014 36.6815 41.2098 37.5895C39.0183 38.4974 36.6693 38.9648 34.297 38.9648C31.9248 38.9648 29.5758 38.4974 27.3842 37.5895C25.1926 36.6815 23.2013 35.3506 21.5242 33.6729C19.847 31.9953 18.5167 30.0036 17.6094 27.8117C16.7021 25.6199 16.2355 23.2707 16.2362 20.8985C16.2355 18.5262 16.7021 16.1771 17.6094 13.9852C18.5167 11.7934 19.847 9.8017 21.5242 8.12401C23.2013 6.44633 25.1926 5.11549 27.3842 4.20751C29.5758 3.29952 31.9248 2.83218 34.297 2.83218C36.6693 2.83218 39.0183 3.29952 41.2098 4.20751C43.4014 5.11549 45.3927 6.44633 47.0699 8.12401C48.747 9.8017 50.0773 11.7934 50.9846 13.9852C51.8919 16.1771 52.3585 18.5262 52.3578 20.8985Z" stroke="white" stroke-linecap="round" stroke-linejoin="round"/>
<path fill-rule="evenodd" clip-rule="evenodd" d="M72.5413 61.8582C72.5413 65.7098 71.0113 69.4037 68.2878 72.1272C65.5643 74.8507 61.8704 76.3807 58.0189 76.3807C54.1673 76.3807 50.4734 74.8507 47.7499 72.1272C45.0264 69.4037 43.4964 65.7098 43.4964 61.8582C43.4964 58.0066 45.0264 54.3128 47.7499 51.5893C50.4734 48.8658 54.1673 47.3358 58.0189 47.3358C61.8704 47.3358 65.5643 48.8658 68.2878 51.5893C71.0113 54.3128 72.5413 58.0066 72.5413 61.8582Z" fill="url(#paint8_linear_5_57)" stroke="#204A87" stroke-linecap="round"/>
<path d="M55.7313 60.5514C55.9661 59.3866 56.3184 58.5599 56.7881 58.0714C57.2578 57.5736 57.92 57.3246 58.7749 57.3246C59.6297 57.3246 60.1933 57.5736 60.4657 58.0714C60.7475 58.5693 60.7757 59.396 60.5503 60.5514L58.8171 69.2171C58.5823 70.3819 58.2253 71.2132 57.7463 71.7111C57.2766 72.1996 56.6096 72.4438 55.7454 72.4438C54.9 72.4438 54.3363 72.1996 54.0545 71.7111C53.7821 71.2132 53.7633 70.3819 53.9982 69.2171L55.7313 60.5514ZM57.3517 53.4638C57.4738 52.8532 57.7979 52.3366 58.324 51.9139C58.85 51.4818 59.4136 51.2657 60.0148 51.2657C60.6254 51.2657 61.0998 51.4818 61.438 51.9139C61.7762 52.3366 61.8842 52.8532 61.7621 53.4638C61.6493 54.065 61.3346 54.5817 60.818 55.0138C60.3013 55.4365 59.7377 55.6479 59.1271 55.6478C58.5165 55.6479 58.0375 55.4365 57.6899 55.0138C57.3517 54.5817 57.239 54.065 57.3517 53.4638Z" fill="white"/>
<path opacity="0.276471" fill-rule="evenodd" clip-rule="evenodd" d="M70.9211 61.8582C70.9211 65.2801 69.5617 68.5619 67.1421 70.9815C64.7225 73.4011 61.4407 74.7605 58.0188 74.7605C54.5969 74.7605 51.3152 73.4011 48.8956 70.9815C46.4759 68.5619 45.1166 65.2801 45.1166 61.8582C45.1166 58.4363 46.4759 55.1546 48.8956 52.7349C51.3152 50.3153 54.5969 48.956 58.0188 48.956C61.4407 48.956 64.7225 50.3153 67.1421 52.7349C69.5617 55.1546 70.9211 58.4363 70.9211 61.8582Z" stroke="url(#paint9_linear_5_57)" stroke-linecap="round"/>
<defs>
<filter id="filter0_f_5_57" x="0.282157" y="56.2636" width="66.7091" height="21.8887" filterUnits="userSpaceOnUse" color-interpolation-filters="sRGB">
<feFlood flood-opacity="0" result="BackgroundImageFix"/>
<feBlend mode="normal" in="SourceGraphic" in2="BackgroundImageFix" result="shape"/>
<feGaussianBlur stdDeviation="1.35892" result="effect1_foregroundBlur_5_57"/>
</filter>
<filter id="filter1_f_5_57" x="13.0137" y="24.8817" width="41.9926" height="20.9783" filterUnits="userSpaceOnUse" color-interpolation-filters="sRGB">
<feFlood flood-opacity="0" result="BackgroundImageFix"/>
<feBlend mode="normal" in="SourceGraphic" in2="BackgroundImageFix" result="shape"/>
<feGaussianBlur stdDeviation="0.551965" result="effect1_foregroundBlur_5_57"/>
</filter>
<radialGradient id="paint0_radial_5_57" cx="0" cy="0" r="1" gradientUnits="userSpaceOnUse" gradientTransform="translate(58.3851 74.3078) scale(14.615 5.5231)">
<stop/>
<stop offset="1" stop-opacity="0"/>
</radialGradient>
<linearGradient id="paint1_linear_5_57" x1="5.37338" y1="30.5406" x2="5.37338" y2="44.8937" gradientUnits="userSpaceOnUse">
<stop stop-color="white"/>
<stop offset="1" stop-color="#C9C9C9"/>
</linearGradient>
<linearGradient id="paint2_linear_5_57" x1="25.4721" y1="45.8631" x2="28.0283" y2="43.7853" gradientUnits="userSpaceOnUse">
<stop/>
<stop offset="1" stop-opacity="0"/>
</linearGradient>
<radialGradient id="paint3_radial_5_57" cx="0" cy="0" r="1" gradientUnits="userSpaceOnUse" gradientTransform="translate(33.9573 44.1218) scale(41.8038 42.1703)">
<stop stop-color="white"/>
<stop offset="1" stop-color="#D6D6D2"/>
</radialGradient>
<linearGradient id="paint4_linear_5_57" x1="56.9092" y1="61.2614" x2="59.4654" y2="59.1835" gradientUnits="userSpaceOnUse">
<stop/>
<stop offset="1" stop-opacity="0"/>
</linearGradient>
<linearGradient id="paint5_linear_5_57" x1="7.60757" y1="60.1137" x2="11.879" y2="61.8361" gradientUnits="userSpaceOnUse">
<stop/>
<stop offset="1" stop-opacity="0"/>
</linearGradient>
<radialGradient id="paint6_radial_5_57" cx="0" cy="0" r="1" gradientUnits="userSpaceOnUse" gradientTransform="translate(34.01 35.3709) scale(19.8924 9.38239)">
<stop/>
<stop offset="1" stop-opacity="0"/>
</radialGradient>
<radialGradient id="paint7_radial_5_57" cx="0" cy="0" r="1" gradientUnits="userSpaceOnUse" gradientTransform="translate(35.3758 10.2038) scale(23.0683 23.2706)">
<stop stop-color="white"/>
<stop offset="1" stop-color="#D6D6D2"/>
</radialGradient>
<linearGradient id="paint8_linear_5_57" x1="54.9235" y1="57.1566" x2="58.9909" y2="93.4049" gradientUnits="userSpaceOnUse">
<stop stop-color="#3465A4"/>
<stop offset="1" stop-color="#204A87"/>
</linearGradient>
<linearGradient id="paint9_linear_5_57" x1="55.9483" y1="51.0265" x2="58.6952" y2="84.4868" gradientUnits="userSpaceOnUse">
<stop stop-color="white"/>
<stop offset="1" stop-color="white" stop-opacity="0"/>
</linearGradient>
</defs>
</svg>
