<svg width="853" height="288" viewBox="0 0 853 288" fill="none" xmlns="http://www.w3.org/2000/svg">
<g filter="url(#filter0_d_3_18)">
<path d="M95.7843 0H142.838V88.8797H181.179V130.705H95.7843V0Z" fill="white"/>
<path d="M186.552 0H278.627V41.8257H230.266L266.282 64.4813L230.12 88.8797H278.772V130.705H186.697V0H186.552Z" fill="white"/>
<path d="M322.05 65.3527L284.436 0H335.846L346.303 20.9129L356.759 0H408.17L370.556 65.3527L408.17 130.705H356.759L346.303 109.793L335.846 130.705H284.436L322.05 65.3527Z" fill="white"/>
<path d="M128.461 143.05H186.697C213.274 143.05 234.477 168.174 234.477 194.315C234.477 220.457 213.419 245.581 186.697 245.581H175.515V273.755H128.461V143.05ZM180.888 204.336C185.535 204.336 189.021 199.979 189.021 194.17C189.021 188.361 185.535 184.004 180.888 184.004H175.515V204.191H180.888V204.336Z" fill="white"/>
<path d="M39.4357 5.95441L123.959 125.187L75.4523 134.191L58.8963 109.066L52.5062 138.403L4 147.407L39.4357 5.95441Z" fill="#A8C686"/>
<path d="M238.398 216.826V143.631H285.452V216.535C285.452 223.797 287.195 230.913 295.763 230.913C304.332 230.913 306.075 223.651 306.075 216.535V143.631L353.129 143.776V216.826C353.129 250.664 327.859 274.627 295.763 274.627C263.668 274.627 238.398 250.664 238.398 216.826Z" fill="white"/>
<path d="M420.079 274.191L405.846 230.622V274.191H358.792V143.486H417.029C443.606 143.486 464.809 168.174 464.809 189.523C464.809 200.996 458.419 214.647 447.963 223.652L469.892 274.336H420.224L420.079 274.191ZM419.353 189.523C419.353 184.149 415.867 180.083 411.22 180.083H405.846V198.963H411.22C415.867 198.963 419.353 194.896 419.353 189.523Z" fill="white"/>
<path d="M520.577 226.847V274.481H474.83L474.249 143.486L537.569 188.216V143.486H583.896L582.735 274.481L520.577 226.847Z" fill="white"/>
<path d="M597.548 136.95L688.606 150.747L682.361 192.137L634.436 184.875L666.676 212.614L627.174 231.348L675.245 238.61L669 280L577.942 266.203L597.402 137.095L597.548 136.95Z" fill="#669BBC"/>
<path d="M672.631 143.631H719.685V232.51H758.025V274.336H672.631V143.631Z" fill="white"/>
<path d="M763.544 143.776H810.597V232.656H848.938V274.481H763.544V143.776Z" fill="white"/>
</g>
<defs>
<filter id="filter0_d_3_18" x="0" y="0" width="852.938" height="288" filterUnits="userSpaceOnUse" color-interpolation-filters="sRGB">
<feFlood flood-opacity="0" result="BackgroundImageFix"/>
<feColorMatrix in="SourceAlpha" type="matrix" values="0 0 0 0 0 0 0 0 0 0 0 0 0 0 0 0 0 0 127 0" result="hardAlpha"/>
<feOffset dy="4"/>
<feGaussianBlur stdDeviation="2"/>
<feComposite in2="hardAlpha" operator="out"/>
<feColorMatrix type="matrix" values="0 0 0 0 0 0 0 0 0 0 0 0 0 0 0 0 0 0 0.25 0"/>
<feBlend mode="normal" in2="BackgroundImageFix" result="effect1_dropShadow_3_18"/>
<feBlend mode="normal" in="SourceGraphic" in2="effect1_dropShadow_3_18" result="shape"/>
</filter>
</defs>
</svg>
