<svg width="71" height="67" viewBox="0 0 71 67" fill="none" xmlns="http://www.w3.org/2000/svg">
<path opacity="0.402062" d="M58.7939 52.7914H12.168V66.1113H58.7939V52.7914Z" fill="url(#paint0_linear_5_275)"/>
<path opacity="0.402062" d="M58.7939 52.7919V66.1111C63.7667 66.1361 70.8156 63.1269 70.8156 59.4506C70.8156 55.7743 65.2664 52.7919 58.7939 52.7919Z" fill="url(#paint1_radial_5_275)"/>
<path opacity="0.402062" d="M12.1681 52.7917V66.1109C7.19533 66.136 0.146423 63.1267 0.146423 59.4505C0.146423 55.7742 5.69561 52.7917 12.1681 52.7917Z" fill="url(#paint2_radial_5_275)"/>
<path fill-rule="evenodd" clip-rule="evenodd" d="M17.0697 15.6145C16.1676 15.6145 15.5813 16.0334 15.2204 16.8324L5.88379 41.5187C5.88379 41.5187 5.52295 42.488 5.52295 44.0897V58.018C5.52295 59.5806 6.47236 60.3634 7.91349 60.3634H63.5726C64.9941 60.3634 65.8729 59.3268 65.8729 57.7022V43.774C65.8729 43.774 66.0259 42.662 65.7376 41.8796L56.0401 17.0579C55.7738 16.319 55.1208 15.6317 54.4164 15.6145H17.0697Z" stroke="#535353" stroke-width="2" stroke-linecap="round" stroke-linejoin="round"/>
<path fill-rule="evenodd" clip-rule="evenodd" d="M5.50549 43.0875L6.60908 42.0884L60.8929 42.1786L65.8904 42.6365V57.703C65.8904 59.3276 65.0143 60.3635 63.5928 60.3635H7.90411C6.46297 60.3635 5.50549 59.5812 5.50549 58.0186V43.0875Z" fill="url(#paint3_linear_5_275)"/>
<path fill-rule="evenodd" clip-rule="evenodd" d="M5.90309 41.5252C4.87213 43.6387 5.9022 44.9789 7.39799 44.9789H63.6885C65.3037 44.9445 66.3519 43.5184 65.7505 41.886L56.0594 17.045C55.7931 16.3061 55.1144 15.6188 54.4099 15.6016H17.089C16.1869 15.6016 15.5941 16.0398 15.2333 16.8388L5.90309 41.5252Z" fill="url(#paint4_radial_5_275)"/>
<path d="M37.5614 49.1169H12.1224V57.1455H37.5614V49.1169Z" fill="url(#paint5_linear_5_275)"/>
<path opacity="0.811429" fill-rule="evenodd" clip-rule="evenodd" d="M12.1224 57.1455V51.3555C14.7717 55.9443 24.0971 57.1455 30.7957 57.1455H12.1224Z" fill="url(#paint6_linear_5_275)"/>
<path fill-rule="evenodd" clip-rule="evenodd" d="M65.437 41.1128C65.5287 42.917 64.8394 44.4554 63.5287 44.4957H8.51015C6.64934 44.4957 5.81435 44.0266 5.50214 43.2427C5.63458 44.6057 6.69408 45.6233 8.51015 45.6233H63.5287C65.0818 45.5755 66.0586 43.5679 65.4804 41.3007L65.437 41.1128Z" fill="white"/>
<path opacity="0.691429" fill-rule="evenodd" clip-rule="evenodd" d="M16.6122 18.7807C16.5457 19.0698 16.3416 19.339 16.3416 19.6377C16.3416 21.0068 17.1946 22.2205 18.2811 23.3814C18.6279 23.159 18.8081 22.8698 19.1832 22.6597C17.826 21.4819 16.9411 20.1821 16.6122 18.7807ZM55.0865 18.7807C54.7563 20.1802 53.8711 21.4832 52.5155 22.6597C52.9112 22.8814 53.0986 23.1912 53.4627 23.4265C54.5557 22.2622 55.3571 21.0117 55.3571 19.6377C55.3571 19.339 55.1527 19.0698 55.0865 18.7807ZM58.2438 30.9589C57.3579 36.7902 47.7093 41.4232 35.8268 41.4232C23.9736 41.4232 14.3784 36.8149 13.4549 31.004C13.4082 31.2886 13.2745 31.5697 13.2745 31.861C13.2745 38.0933 23.3622 43.1823 35.8268 43.1823C48.2914 43.1823 58.4242 38.0933 58.4242 31.861C58.4242 31.5537 58.2957 31.2586 58.2438 30.9589Z" fill="url(#paint7_linear_5_275)"/>
<path fill-rule="evenodd" clip-rule="evenodd" d="M13.283 41.3173C13.283 41.7064 13.0746 42.0795 12.7038 42.3547C12.3329 42.6298 11.83 42.7844 11.3055 42.7844C10.7811 42.7844 10.2781 42.6298 9.9073 42.3547C9.53646 42.0795 9.32813 41.7064 9.32812 41.3173C9.32813 40.9282 9.53646 40.555 9.9073 40.2799C10.2781 40.0047 10.7811 39.8501 11.3055 39.8501C11.83 39.8501 12.3329 40.0047 12.7038 40.2799C13.0746 40.555 13.283 40.9282 13.283 41.3173Z" fill="white" fill-opacity="0.457627"/>
<path fill-rule="evenodd" clip-rule="evenodd" d="M62.1816 41.1897C62.1816 41.5788 61.9733 41.9519 61.6025 42.2271C61.2316 42.5022 60.7287 42.6568 60.2042 42.6568C59.6798 42.6568 59.1768 42.5022 58.806 42.2271C58.4351 41.9519 58.2268 41.5788 58.2268 41.1897C58.2268 40.8006 58.4351 40.4274 58.806 40.1523C59.1768 39.8771 59.6798 39.7225 60.2042 39.7225C60.7287 39.7225 61.2316 39.8771 61.6025 40.1523C61.9733 40.4274 62.1816 40.8006 62.1816 41.1897Z" fill="white" fill-opacity="0.457627"/>
<path fill-rule="evenodd" clip-rule="evenodd" d="M17.5847 16.2685C16.7163 16.2685 16.1518 16.6717 15.8044 17.4409L6.54532 41.3871C6.54532 41.3871 6.19794 42.3202 6.19794 43.8622V57.271C6.19794 59.2264 6.83886 59.6192 8.49933 59.6192H62.8946C64.8044 59.6192 65.1092 59.1625 65.1092 56.9671V43.5582C65.1092 43.5582 65.2564 42.4877 64.9789 41.7345L55.4627 17.4776C55.2063 16.7663 54.6679 16.2851 53.9897 16.2685H17.5847Z" stroke="url(#paint8_linear_5_275)" stroke-linecap="round" stroke-linejoin="round"/>
<path d="M59.2361 49.4849V56.7319" stroke="white" stroke-opacity="0.423729" stroke-linecap="square"/>
<path d="M56.3494 49.5712V56.8182" stroke="white" stroke-opacity="0.423729" stroke-linecap="square"/>
<path d="M53.4627 49.5712V56.8182" stroke="white" stroke-opacity="0.423729" stroke-linecap="square"/>
<path d="M50.576 49.5712V56.8182" stroke="white" stroke-opacity="0.423729" stroke-linecap="square"/>
<path d="M47.6893 49.5712V56.8182" stroke="white" stroke-opacity="0.423729" stroke-linecap="square"/>
<path d="M44.8026 49.5712V56.8182" stroke="white" stroke-opacity="0.423729" stroke-linecap="square"/>
<path opacity="0.0971428" d="M57.7927 49.5569V56.8039" stroke="black" stroke-linecap="square"/>
<path opacity="0.0971428" d="M54.9061 49.6432V56.8902" stroke="black" stroke-linecap="square"/>
<path opacity="0.0971428" d="M52.0193 49.6432V56.8902" stroke="black" stroke-linecap="square"/>
<path opacity="0.0971428" d="M49.1327 49.6432V56.8902" stroke="black" stroke-linecap="square"/>
<path opacity="0.0971428" d="M46.246 49.6432V56.8902" stroke="black" stroke-linecap="square"/>
<path opacity="0.44" fill-rule="evenodd" clip-rule="evenodd" d="M12.1469 49.1361V57.1196H30.2789L12.643 56.6235L12.1469 49.1361Z" fill="white"/>
<path opacity="0.205714" fill-rule="evenodd" clip-rule="evenodd" d="M58.1536 31.0491C58.1536 32.3937 57.5772 33.7251 56.4575 34.9673C55.3377 36.2096 53.6965 37.3383 51.6274 38.289C49.5584 39.2398 47.1021 39.994 44.3987 40.5085C41.6954 41.023 38.798 41.2879 35.8719 41.2879C32.9458 41.2879 30.0484 41.023 27.3451 40.5085C24.6417 39.994 22.1854 39.2398 20.1164 38.289C18.0473 37.3383 16.4061 36.2096 15.2863 34.9673C14.1665 33.7251 13.5902 32.3937 13.5902 31.0491C13.5902 29.7046 14.1665 28.3732 15.2863 27.1309C16.4061 25.8887 18.0473 24.76 20.1164 23.8093C22.1854 22.8585 24.6417 22.1043 27.3451 21.5898C30.0484 21.0752 32.9458 20.8104 35.8719 20.8104C38.798 20.8104 41.6954 21.0752 44.3987 21.5898C47.1021 22.1043 49.5584 22.8585 51.6274 23.8093C53.6965 24.76 55.3377 25.8887 56.4575 27.1309C57.5772 28.3732 58.1536 29.7046 58.1536 31.0491Z" fill="url(#paint9_linear_5_275)"/>
<path opacity="0.141176" fill-rule="evenodd" clip-rule="evenodd" d="M61.1737 34.2516C61.1737 31.81 58.485 29.4684 53.6989 27.7419C48.9129 26.0154 42.4216 25.0455 35.6532 25.0455C28.8847 25.0455 22.3934 26.0154 17.6074 27.7419C12.8213 29.4684 10.1326 31.81 10.1326 34.2516C10.1326 36.6932 12.8213 39.0348 17.6074 40.7613C22.3934 42.4877 28.8847 43.4577 35.6532 43.4577C42.4216 43.4577 48.9129 42.4877 53.6989 40.7613C58.485 39.0348 61.1737 36.6932 61.1737 34.2516Z" fill="url(#paint10_radial_5_275)"/>
<path d="M5.40424 34.0137C3.91686 -11.0484 42.2647 -3.92659 42.0349 19.5131H52.59L36.168 38.2564L18.9457 19.5131H29.8306C30.4903 3.68048 5.70125 -0.951634 5.40424 34.0137Z" fill="url(#paint11_linear_5_275)" stroke="url(#paint12_linear_5_275)"/>
<path opacity="0.471591" d="M11.8427 9.86491C18.6873 -3.33325 41.3709 0.646886 40.8502 20.6544H49.9684L36.1616 36.4697L21.5889 20.6544H30.908C31.3001 3.94727 16.5452 4.71276 11.8427 9.86491Z" stroke="url(#paint13_linear_5_275)" stroke-width="0.999999" stroke-miterlimit="10"/>
<path opacity="0.494318" d="M50.9617 20.1235L48.0978 23.7979C40.2892 21.6093 36.7154 27.7373 25.4752 26.2974L19.902 19.9337L30.2746 20.0532C30.345 2.95468 12.8243 3.93977 8.03955 16.3942C13.5358 -5.09571 41.0403 -2.11154 41.6032 19.9828L50.9617 20.1235Z" fill="url(#paint14_radial_5_275)"/>
<defs>
<linearGradient id="paint0_linear_5_275" x1="29.8252" y1="52.7914" x2="29.8252" y2="66.1113" gradientUnits="userSpaceOnUse">
<stop stop-opacity="0"/>
<stop offset="0.5"/>
<stop offset="1" stop-opacity="0"/>
</linearGradient>
<radialGradient id="paint1_radial_5_275" cx="0" cy="0" r="1" gradientUnits="userSpaceOnUse" gradientTransform="translate(59.0888 59.373) scale(11.3116 6.42489)">
<stop/>
<stop offset="1" stop-opacity="0"/>
</radialGradient>
<radialGradient id="paint2_radial_5_275" cx="0" cy="0" r="1" gradientUnits="userSpaceOnUse" gradientTransform="translate(11.8732 59.3729) rotate(180) scale(11.3116 6.42489)">
<stop/>
<stop offset="1" stop-opacity="0"/>
</radialGradient>
<linearGradient id="paint3_linear_5_275" x1="11.7567" y1="45.2299" x2="53.0053" y2="63.218" gradientUnits="userSpaceOnUse">
<stop stop-color="#BBBBBB"/>
<stop offset="1" stop-color="#9F9F9F"/>
</linearGradient>
<radialGradient id="paint4_radial_5_275" cx="0" cy="0" r="1" gradientUnits="userSpaceOnUse" gradientTransform="translate(23.2556 19.6456) rotate(31.2886) scale(45.4821 41.3559)">
<stop stop-color="#E4E4E4"/>
<stop offset="1" stop-color="#D3D3D3"/>
</radialGradient>
<linearGradient id="paint5_linear_5_275" x1="12.1224" y1="53.1312" x2="37.5614" y2="53.1312" gradientUnits="userSpaceOnUse">
<stop stop-color="#838383"/>
<stop offset="1" stop-color="#BBBBBB" stop-opacity="0"/>
</linearGradient>
<linearGradient id="paint6_linear_5_275" x1="18.5011" y1="57.8226" x2="18.4209" y2="52.8472" gradientUnits="userSpaceOnUse">
<stop stop-color="#EEEEEE"/>
<stop offset="1" stop-color="#EEEEEE" stop-opacity="0"/>
</linearGradient>
<linearGradient id="paint7_linear_5_275" x1="34.9706" y1="20.4587" x2="34.9706" y2="42.1643" gradientUnits="userSpaceOnUse">
<stop stop-color="white" stop-opacity="0.254902"/>
<stop offset="1" stop-color="white"/>
</linearGradient>
<linearGradient id="paint8_linear_5_275" x1="18.6468" y1="10.5202" x2="64.4265" y2="72.8548" gradientUnits="userSpaceOnUse">
<stop stop-color="white"/>
<stop offset="1" stop-color="white" stop-opacity="0"/>
</linearGradient>
<linearGradient id="paint9_linear_5_275" x1="48.5012" y1="50.0374" x2="30.4214" y2="19.4776" gradientUnits="userSpaceOnUse">
<stop stop-color="white"/>
<stop offset="0.5" stop-color="#E6E6E6"/>
<stop offset="0.75" stop-color="white"/>
<stop offset="0.841667" stop-color="#E1E1E1"/>
<stop offset="1" stop-color="white"/>
</linearGradient>
<radialGradient id="paint10_radial_5_275" cx="0" cy="0" r="1" gradientUnits="userSpaceOnUse" gradientTransform="translate(35.6532 34.2516) scale(25.5206 9.20608)">
<stop/>
<stop offset="1" stop-opacity="0"/>
</radialGradient>
<linearGradient id="paint11_linear_5_275" x1="22.0723" y1="19.6282" x2="13.6196" y2="20.8911" gradientUnits="userSpaceOnUse">
<stop stop-color="#3465A4"/>
<stop offset="1" stop-color="#3465A4" stop-opacity="0"/>
</linearGradient>
<linearGradient id="paint12_linear_5_275" x1="18.4616" y1="23.0656" x2="10.884" y2="27.2058" gradientUnits="userSpaceOnUse">
<stop stop-color="#204A87"/>
<stop offset="1" stop-color="#204A87" stop-opacity="0"/>
</linearGradient>
<linearGradient id="paint13_linear_5_275" x1="38.8154" y1="28.9609" x2="11.8531" y2="9.42035" gradientUnits="userSpaceOnUse">
<stop stop-color="white"/>
<stop offset="1" stop-color="white" stop-opacity="0"/>
</linearGradient>
<radialGradient id="paint14_radial_5_275" cx="0" cy="0" r="1" gradientUnits="userSpaceOnUse" gradientTransform="translate(22.9136 1.75177) rotate(-179.561) scale(36.1672 36.7656)">
<stop stop-color="white"/>
<stop offset="1" stop-color="white" stop-opacity="0"/>
</radialGradient>
</defs>
</svg>
