<svg width="70" height="70" viewBox="0 0 70 70" fill="none" xmlns="http://www.w3.org/2000/svg">
<path d="M66.5875 66.0188C66.5875 66.9172 63.3594 67.7789 57.6134 68.4142C51.8674 69.0495 44.0741 69.4065 35.9479 69.4065C27.8218 69.4065 20.0285 69.0495 14.2825 68.4142C8.53644 67.7789 5.30835 66.9172 5.30835 66.0188C5.30835 65.1203 8.53644 64.2586 14.2825 63.6233C20.0285 62.988 27.8218 62.631 35.9479 62.631C44.0741 62.631 51.8674 62.988 57.6134 63.6233C63.3594 64.2586 66.5875 65.1203 66.5875 66.0188Z" fill="url(#paint0_radial_5_195)"/>
<path d="M61.3521 6.5625H8.53123C7.41171 6.5625 6.50415 7.47006 6.50415 8.58958V64.3271C6.50415 65.4466 7.41171 66.3542 8.53123 66.3542H61.3521C62.4716 66.3542 63.3792 65.4466 63.3792 64.3271V8.58958C63.3792 7.47006 62.4716 6.5625 61.3521 6.5625Z" fill="url(#paint1_linear_5_195)" stroke="#714C16"/>
<path d="M56.7437 9.52292H13.2708C12.8117 9.52292 12.4396 9.89508 12.4396 10.3542V61.1625C12.4396 61.6216 12.8117 61.9938 13.2708 61.9938H56.7437C57.2028 61.9938 57.575 61.6216 57.575 61.1625V10.3542C57.575 9.89508 57.2028 9.52292 56.7437 9.52292Z" fill="url(#paint2_linear_5_195)" stroke="#888A85"/>
<path d="M42.2917 0H27.7083C26.9029 0 26.25 0.652918 26.25 1.45833V4.375C26.25 5.18042 26.9029 5.83333 27.7083 5.83333H42.2917C43.0971 5.83333 43.75 5.18042 43.75 4.375V1.45833C43.75 0.652918 43.0971 0 42.2917 0Z" fill="#5C5C5C"/>
<path opacity="0.4" d="M21 21H18.5208C17.7154 21 17.0625 21.6529 17.0625 22.4583V24.9375C17.0625 25.7429 17.7154 26.3958 18.5208 26.3958H21C21.8054 26.3958 22.4583 25.7429 22.4583 24.9375V22.4583C22.4583 21.6529 21.8054 21 21 21Z" stroke="#2E3436" stroke-width="0.8"/>
<path opacity="0.4" d="M21 30.45H18.5208C17.7154 30.45 17.0625 31.1029 17.0625 31.9083V34.3875C17.0625 35.1929 17.7154 35.8458 18.5208 35.8458H21C21.8054 35.8458 22.4583 35.1929 22.4583 34.3875V31.9083C22.4583 31.1029 21.8054 30.45 21 30.45Z" stroke="#2E3436" stroke-width="0.8"/>
<path opacity="0.5" d="M22.8083 50.1229H18.4333C17.6279 50.1229 16.975 50.7758 16.975 51.5812V55.9562C16.975 56.7617 17.6279 57.4146 18.4333 57.4146H22.8083C23.6137 57.4146 24.2666 56.7617 24.2666 55.9562V51.5812C24.2666 50.7758 23.6137 50.1229 22.8083 50.1229Z" stroke="#2E3436" stroke-width="0.8"/>
<path opacity="0.4" d="M21 39.9H18.5208C17.7154 39.9 17.0625 40.5529 17.0625 41.3583V43.8375C17.0625 44.6429 17.7154 45.2958 18.5208 45.2958H21C21.8054 45.2958 22.4583 44.6429 22.4583 43.8375V41.3583C22.4583 40.5529 21.8054 39.9 21 39.9Z" stroke="#2E3436" stroke-width="0.8"/>
<path d="M13.8834 10.8938H56.175V60.4771H13.8834V10.8938Z" stroke="url(#paint3_linear_5_195)"/>
<path d="M61.3084 7.91876H8.66252C8.25981 7.91876 7.93335 8.24522 7.93335 8.64793V64.2104C7.93335 64.6131 8.25981 64.9396 8.66252 64.9396H61.3084C61.7111 64.9396 62.0375 64.6131 62.0375 64.2104V8.64793C62.0375 8.24522 61.7111 7.91876 61.3084 7.91876Z" stroke="#C68827"/>
<path opacity="0.11" d="M47.1771 6.51874H23.5958C22.4763 6.51874 21.5687 7.42629 21.5687 8.54582V14.7C21.5687 15.8195 22.4763 16.7271 23.5958 16.7271H47.1771C48.2966 16.7271 49.2041 15.8195 49.2041 14.7V8.54582C49.2041 7.42629 48.2966 6.51874 47.1771 6.51874Z" fill="black" stroke="black"/>
<path d="M46.7979 5.10416H23.2167C22.0971 5.10416 21.1896 6.01171 21.1896 7.13124V13.2854C21.1896 14.4049 22.0971 15.3125 23.2167 15.3125H46.7979C47.9174 15.3125 48.825 14.4049 48.825 13.2854V7.13124C48.825 6.01171 47.9174 5.10416 46.7979 5.10416Z" fill="url(#paint4_linear_5_195)" stroke="#5C5C5C"/>
<path d="M41.5188 1.76459H28.3354C28.0696 1.76459 27.8542 1.98005 27.8542 2.24584V6.50417C27.8542 6.76996 28.0696 6.98542 28.3354 6.98542H41.5188C41.7846 6.98542 42 6.76996 42 6.50417V2.24584C42 1.98005 41.7846 1.76459 41.5188 1.76459Z" fill="url(#paint5_linear_5_195)"/>
<path d="M46.7396 5.74582H23.2604C22.455 5.74582 21.8021 6.39874 21.8021 7.20415V13.3146C21.8021 14.12 22.455 14.7729 23.2604 14.7729H46.7396C47.545 14.7729 48.1979 14.12 48.1979 13.3146V7.20415C48.1979 6.39874 47.545 5.74582 46.7396 5.74582Z" fill="url(#paint6_linear_5_195)"/>
<path opacity="0.5" d="M56.875 52.9375L56.9333 61.4104L44.5375 61.3521L56.875 52.9375Z" fill="url(#paint7_linear_5_195)"/>
<path d="M43.8959 61.3958C46.5063 61.6292 57.0063 55.0229 57.7209 49.1604C55.4459 52.6896 50.4875 52.0333 44.45 52.2667C44.45 52.2667 45.0188 60.6667 43.8375 61.3958H43.8959Z" fill="url(#paint8_linear_5_195)" stroke="#868A84"/>
<path opacity="0.32" d="M28.3937 2.14374V2.18749H28.35V6.38749L28.3937 6.43124V6.47499H23.1583C23.1 6.47499 23.0125 6.50415 22.9687 6.51874C22.7646 6.60624 22.575 6.8104 22.5166 7.01457C22.5152 7.0729 22.5166 7.17499 22.5166 7.2479V13.4021C22.5166 13.4458 22.5458 13.5333 22.5604 13.5771C22.5618 13.6062 22.5896 13.6792 22.6041 13.7083L22.6479 13.7521C22.6771 13.7958 22.75 13.8542 22.7791 13.8833C22.8083 13.8848 22.8521 13.9125 22.8812 13.9271C22.8812 13.9271 22.9396 13.9708 22.9687 13.9708C23.0125 13.9723 23.1 14.0146 23.1583 14.0146H46.8125C46.8708 14.0131 46.9583 13.9854 47.0021 13.9708C47.0312 13.9694 47.075 13.9417 47.0896 13.9271C47.1187 13.9256 47.1625 13.8979 47.1916 13.8833L47.3229 13.7521L47.3666 13.7083C47.3681 13.6792 47.3958 13.6062 47.4104 13.5771C47.4118 13.5333 47.4541 13.4458 47.4541 13.4021V7.2479C47.4541 7.18957 47.4556 7.0729 47.4541 7.01457C47.3958 6.8104 47.2062 6.59165 47.0021 6.51874C46.9583 6.51728 46.8708 6.47499 46.8125 6.47499H41.5771V6.43124L41.6208 6.38749V2.18749H41.5771V2.14374H28.4083H28.3646H28.3937Z" stroke="url(#paint9_linear_5_195)"/>
<path opacity="0.37" d="M45.9521 59.3396C47.95 58.3333 52.5583 55.5479 54.4542 52.8062C51.8438 53.3458 50.0938 53.6521 46.0979 53.8125C46.0979 53.8125 46.2292 58.1875 45.9521 59.3396Z" stroke="url(#paint10_linear_5_195)"/>
<g opacity="0.17">
<path d="M28.8167 21.875H52.6458V24.7917H28.8167V21.875Z" fill="black"/>
<path d="M28.8167 27.7083H51.5083V30.625H28.8167V27.7083Z" fill="black"/>
<path d="M28.8167 33.5417H49.2333V36.4583H28.8167V33.5417Z" fill="black"/>
<path d="M28.8167 39.375H52.6458V42.2917H28.8167V39.375Z" fill="black"/>
<path d="M28.8167 45.2083H43.575V48.125H28.8167V45.2083Z" fill="black"/>
</g>
<path d="M20.5952 23.1019C22.2598 20.4271 22.6154 20.3267 24.4329 18.0043C24.995 17.3762 26.6127 15.8042 27.366 16.1042C27.9413 16.3336 26.9913 17.104 26.7145 17.4587C24.2787 20.5779 22.8407 22.7058 20.5825 25.9575C20.2346 26.4583 19.6763 26.6044 19.1317 26.4878C18.5781 26.3681 18.2502 25.3426 18.0671 24.8555C17.7944 24.1291 17.1068 23.2229 17.1072 22.4452C17.1074 21.8171 17.4362 21.503 17.9904 21.4603C18.7037 21.4054 18.969 22.396 19.1781 22.9802C19.5741 24.0826 19.6593 24.6081 20.5961 23.1041L20.5952 23.1019Z" fill="#4E9A06"/>
<path d="M20.5952 32.5228C22.2598 29.8479 22.6154 29.7475 24.4329 27.4252C24.995 26.7971 26.6127 25.2251 27.366 25.525C27.9413 25.7545 26.9913 26.5249 26.7145 26.8795C24.2787 29.9988 22.8407 32.1267 20.5825 35.3784C20.2346 35.8791 19.6763 36.0253 19.1317 35.9086C18.5781 35.789 18.2502 34.7635 18.0671 34.2764C17.7944 33.55 17.1068 32.6437 17.1072 31.866C17.1074 31.2379 17.4362 30.9238 17.9904 30.8811C18.7037 30.8262 18.969 31.8169 19.1781 32.401C19.5741 33.5034 19.6593 34.029 20.5961 32.5249L20.5952 32.5228Z" fill="#4E9A06"/>
<path d="M20.5952 41.9436C22.2598 39.2688 22.6154 39.1683 24.4329 36.846C24.995 36.2179 26.6127 34.6459 27.366 34.9458C27.9413 35.1753 26.9913 35.9457 26.7145 36.3004C24.2787 39.4196 22.8407 41.5475 20.5825 44.7992C20.2346 45.3 19.6763 45.4461 19.1317 45.3295C18.5781 45.2098 18.2502 44.1843 18.0671 43.6972C17.7944 42.9708 17.1068 42.0645 17.1072 41.2869C17.1074 40.6587 17.4362 40.3447 17.9904 40.302C18.7037 40.247 18.969 41.2377 19.1781 41.8218C19.5741 42.9242 19.6593 43.4498 20.5961 41.9457L20.5952 41.9436Z" fill="#4E9A06"/>
<path d="M22.7474 50.573C26.203 45.02 26.9412 44.8115 30.7143 39.9904C31.8812 38.6864 35.2396 35.4229 36.8035 36.0456C37.9978 36.522 36.0257 38.1213 35.4509 38.8576C30.3942 45.3331 27.4089 49.7507 22.7209 56.5012C21.9986 57.5408 20.8396 57.8442 19.709 57.602C18.5597 57.3536 17.879 55.2247 17.4989 54.2134C16.9328 52.7054 15.5054 50.824 15.5063 49.2096C15.5067 47.9056 16.1893 47.2536 17.3398 47.1649C18.8205 47.0509 19.3713 49.1075 19.8053 50.3201C20.6275 52.6088 20.8043 53.6998 22.7491 50.5774L22.7474 50.573Z" fill="#4E9A06" stroke="#555753" stroke-width="0.182169"/>
<defs>
<radialGradient id="paint0_radial_5_195" cx="0" cy="0" r="1" gradientUnits="userSpaceOnUse" gradientTransform="translate(35.9479 66.1038) scale(30.625 3.39937)">
<stop stop-color="#646459"/>
<stop offset="1" stop-color="#646459" stop-opacity="0"/>
</radialGradient>
<linearGradient id="paint1_linear_5_195" x1="8.9104" y1="15.2396" x2="49.3792" y2="55.2417" gradientUnits="userSpaceOnUse">
<stop stop-color="#C68827"/>
<stop offset="1" stop-color="#89601F"/>
</linearGradient>
<linearGradient id="paint2_linear_5_195" x1="32.5354" y1="27.6938" x2="52.1937" y2="57.6042" gradientUnits="userSpaceOnUse">
<stop stop-color="#F0F0EF"/>
<stop offset="0.6" stop-color="#E8E8E8"/>
<stop offset="0.83" stop-color="white"/>
<stop offset="1" stop-color="#D8D8D3"/>
</linearGradient>
<linearGradient id="paint3_linear_5_195" x1="38.0625" y1="38.9375" x2="44.9313" y2="61.25" gradientUnits="userSpaceOnUse">
<stop stop-color="white"/>
<stop offset="1" stop-color="white" stop-opacity="0"/>
</linearGradient>
<linearGradient id="paint4_linear_5_195" x1="37.0417" y1="5.57082" x2="37.1292" y2="13.5917" gradientUnits="userSpaceOnUse">
<stop stop-color="#97978A"/>
<stop offset="0.5" stop-color="#C2C2B9"/>
<stop offset="1" stop-color="#7D7D6F"/>
</linearGradient>
<linearGradient id="paint5_linear_5_195" x1="2.30396e-05" y1="5.57084" x2="2.30396e-05" y2="9.45" gradientUnits="userSpaceOnUse">
<stop stop-color="#97978A"/>
<stop offset="0.5" stop-color="#C2C2B9"/>
<stop offset="1" stop-color="#7D7D6F"/>
</linearGradient>
<linearGradient id="paint6_linear_5_195" x1="37.0416" y1="5.57082" x2="37.1291" y2="13.5917" gradientUnits="userSpaceOnUse">
<stop stop-color="#97978A"/>
<stop offset="0.5" stop-color="#C2C2B9"/>
<stop offset="1" stop-color="#7D7D6F"/>
</linearGradient>
<linearGradient id="paint7_linear_5_195" x1="53.6812" y1="57.1667" x2="57.0208" y2="61.3958" gradientUnits="userSpaceOnUse">
<stop/>
<stop offset="1" stop-opacity="0"/>
</linearGradient>
<linearGradient id="paint8_linear_5_195" x1="52.5" y1="59.0042" x2="49.0875" y2="55.0812" gradientUnits="userSpaceOnUse">
<stop stop-color="#7C7C7C"/>
<stop offset="1" stop-color="#B8B8B8"/>
</linearGradient>
<linearGradient id="paint9_linear_5_195" x1="37.45" y1="17.7479" x2="37.4646" y2="-0.291678" gradientUnits="userSpaceOnUse">
<stop stop-color="white"/>
<stop offset="1" stop-color="white" stop-opacity="0"/>
</linearGradient>
<linearGradient id="paint10_linear_5_195" x1="48.7083" y1="53.8417" x2="49.875" y2="55.5625" gradientUnits="userSpaceOnUse">
<stop stop-color="white"/>
<stop offset="1" stop-color="white" stop-opacity="0"/>
</linearGradient>
</defs>
</svg>
